<svg xmlns="http://www.w3.org/2000/svg" viewBox="0 0 1280 640" font-family="'DejaVu Sans Mono', ui-monospace, monospace">
  <defs>
    <linearGradient id="gold" x1="0" y1="0" x2="0.55" y2="1">
      <stop offset="0" stop-color="#fff1c4"/>
      <stop offset="0.3" stop-color="#f8cf63"/>
      <stop offset="0.62" stop-color="#e3a52f"/>
      <stop offset="1" stop-color="#9c6510"/>
    </linearGradient>
    <radialGradient id="bg" cx="0.24" cy="0.18" r="1.1">
      <stop offset="0" stop-color="#1b2330"/>
      <stop offset="1" stop-color="#06080c"/>
    </radialGradient>
  </defs>

  <rect width="1280" height="640" fill="url(#bg)"/>

  <!-- faint ascending candlestick decoration -->
  <g opacity="0.07" fill="#f8cf63">
    <rect x="684" y="544" width="22" height="34" rx="5"/><rect x="692" y="530" width="6" height="62" rx="3"/>
    <rect x="748" y="524" width="22" height="44" rx="5"/><rect x="756" y="510" width="6" height="76" rx="3"/>
    <rect x="812" y="486" width="22" height="60" rx="5"/><rect x="820" y="470" width="6" height="96" rx="3"/>
    <rect x="876" y="446" width="22" height="78" rx="5"/><rect x="884" y="428" width="6" height="116" rx="3"/>
    <rect x="940" y="402" width="22" height="96" rx="5"/><rect x="948" y="384" width="6" height="134" rx="3"/>
    <rect x="1004" y="350" width="22" height="116" rx="5"/><rect x="1012" y="330" width="6" height="158" rx="3"/>
    <rect x="1068" y="296" width="22" height="138" rx="5"/><rect x="1076" y="276" width="6" height="180" rx="3"/>
    <rect x="1132" y="236" width="22" height="162" rx="5"/><rect x="1140" y="214" width="6" height="208" rx="3"/>
    <rect x="1196" y="180" width="22" height="186" rx="5"/><rect x="1204" y="158" width="6" height="232" rx="3"/>
  </g>

  <!-- mark -->
  <svg x="84" y="132" width="300" height="300" viewBox="-3 -3 106 106">
    <polygon points="27.5,8 72.5,8 95,50 72.5,92 27.5,92 5,50" fill="#0e1219" stroke="url(#gold)" stroke-width="3.8" stroke-linejoin="round"/>
    <polygon points="33,20 67,20 84,50 67,80 33,80 16,50" fill="none" stroke="url(#gold)" stroke-width="1.1" opacity="0.45"/>
    <rect x="47.7" y="24" width="4.6" height="52" rx="2.3" fill="#f4f0e2"/>
    <rect x="42.5" y="41" width="15" height="23" rx="4.5" fill="url(#gold)"/>
    <rect x="44.5" y="43.5" width="11" height="5" rx="2.5" fill="#ffffff" opacity="0.32"/>
  </svg>

  <!-- wordmark -->
  <text x="448" y="260" font-size="138" font-weight="700" letter-spacing="-6"><tspan fill="#f7f3ea">wick</tspan><tspan fill="url(#gold)">ra</tspan></text>
  <rect x="454" y="300" width="44" height="7" rx="3.5" fill="#f8cf63"/>
  <text x="514" y="312" font-size="28" letter-spacing="1.5" fill="#f6f9fc">streaming-first technical indicators</text>
  <text x="454" y="360" font-size="23" letter-spacing="1" fill="#e0e6ed">Native · Rust core · Python · Node.js · WASM</text>
  <text x="454" y="402" font-size="21" letter-spacing="1" fill="#ccd5df">C ABI hub → C, C++ · C# · Go · Java · R</text>

  <text x="1200" y="528" font-size="23" letter-spacing="1" fill="#b8c1cc" text-anchor="end">10 languages · <tspan fill="#f7f3ea">0 dependencies</tspan></text>
  <line x1="80" y1="556" x2="1200" y2="556" stroke="#222a36" stroke-width="2"/>
  <text x="80" y="592" font-size="23" letter-spacing="1" fill="#b8c1cc">wickra.org</text>
  <text x="1200" y="592" font-size="23" letter-spacing="1" fill="#b8c1cc" text-anchor="end">514 indicators · O(1) per tick</text>
</svg>
